# xmcd
#
# Track frame offsets:
#	150
#	14466
#	29079
#	40939
#	54057
#	67765
#	81138
#	94658
#	106015
#	118109
#	131688
#	146400
#	159616
#	174078
#	186715
#	200221
#	215621
#	228703
#	243272
#	255175
#	268496
#
# Disc length: 3736 seconds
#
# Revision: 1
# Processed by: cddbd v1.5.2PL0 Copyright (c) Steve Scherf et al.
# Submitted via: audiograbber 1.83.01
#
DISCID=2b0e9615
DTITLE=Various Artist - Rythm and Blues HITS - R&B 1950-1952
DYEAR=1950
DGENRE=R&B
TTITLE0=The Clovers - Ting-A-Ling
TTITLE1=Al Hibbler - Danny Boy
TTITLE2=Harry Van Walls - Tee Nah Nah
TTITLE3=Ruth Brown - Teardrops From My Eyes
TTITLE4=Ray Charles - The Midnight Hour
TTITLE5=Ruth Brown - Daddy Daddy
TTITLE6=The Diomonds - A Beggar For Your Kisses
TTITLE7=The Clovers - One Mint Julep
TTITLE8=Joe Turner - Honey Hush
TTITLE9=The Clovers - Good Lovin'
TTITLE10=The Clovers - Don't You Know I Love You
TTITLE11=Ruth Brown - Mama,He Treats Your Daughter Mean
TTITLE12=The Cardinals - Shouldn't I Know
TTITLE13=Joe Turner - The Chill Is On
TTITLE14=The Cardinals - The Doors Is Still Open
TTITLE15=Joe Turner - Chains Of Love
TTITLE16=The Cardinals - Wheel Of Fortune
TTITLE17=Ruht Brown - 5-10-15 Hours
TTITLE18=Wills Jackson - Gator's Groove
TTITLE19=Joe Turner - Sweet Sixteen
TTITLE20=The Clovers - Fool,Fool,Fool
EXTD=This compilation by KMa s.r.o. 2007\nMastering by RC Atelier 2007\nfor Lev
EXTD=ne Knihy\nCzech Republic
EXTT0=
EXTT1=
EXTT2=
EXTT3=
EXTT4=
EXTT5=
EXTT6=
EXTT7=
EXTT8=
EXTT9=
EXTT10=
EXTT11=
EXTT12=
EXTT13=
EXTT14=
EXTT15=
EXTT16=
EXTT17=
EXTT18=
EXTT19=
EXTT20=
PLAYORDER=
